<svg id="Layer_1" data-name="Layer 1" xmlns="http://www.w3.org/2000/svg" viewBox="0 0 583.59 147.27"><defs><style>.cls-1{fill:#fff;}.cls-2{fill:#da862a;}.cls-3{fill:#0f6194;}.cls-4{fill:#878a6b;}</style></defs><path class="cls-1" d="M101.5,108.21q0,11.87-3.91,17.05T85,130.45q-7.52,0-10.59-4.74T71.3,111.37V67.5H50C25.48,68,20.28,81.88,20.28,81.88V67.45H0v77.69H21.34v-35C21.34,88.49,30.6,82,50,81.76v33.51a62.73,62.73,0,0,0,1.28,13.15,25.12,25.12,0,0,0,4.43,10.07,20.78,20.78,0,0,0,8.64,6.45q5.48,2.34,14,2.33a29.82,29.82,0,0,0,13.22-3.15,25.22,25.22,0,0,0,10.52-9.77h.45v10.82h20.28V67.5H101.5Z"/><path class="cls-1" d="M206.21,74.18a20.78,20.78,0,0,0-8.64-6.45q-5.48-2.34-14-2.34a29.82,29.82,0,0,0-13.21,3.16,25.15,25.15,0,0,0-10.52,9.77h-.45V67.5H139.06v77.67h21.33V104.45q0-11.85,3.91-17t12.62-5.19q7.5,0,10.59,4.73t3.08,14.35v43.87h21.33V97.4a62.73,62.73,0,0,0-1.28-13.15A25.06,25.06,0,0,0,206.21,74.18Z"/><path class="cls-1" d="M282.75,107.06a30.63,30.63,0,0,0-8.11-4,96,96,0,0,0-9.39-2.54c-3-.7-6-1.38-9-2a52.17,52.17,0,0,1-8.12-2.41,19.47,19.47,0,0,1-5.93-3.56,7.21,7.21,0,0,1-2.33-5.6,7.73,7.73,0,0,1,1.5-4.83,10.38,10.38,0,0,1,3.91-3.1,19.15,19.15,0,0,1,5.33-1.59,36.92,36.92,0,0,1,5.79-.46,29,29,0,0,1,6.23.68,18.18,18.18,0,0,1,5.56,2.18,14,14,0,0,1,4.21,4,12.44,12.44,0,0,1,2,6.23h12.78a28.71,28.71,0,0,0-3-11.79,20.09,20.09,0,0,0-6.84-7.51,28.1,28.1,0,0,0-9.91-3.91,61.79,61.79,0,0,0-12.09-1.12A43,43,0,0,0,245,67a31.07,31.07,0,0,0-9.31,3.91A21.34,21.34,0,0,0,229,77.72a18.59,18.59,0,0,0-2.63,10.06,17.37,17.37,0,0,0,8,15.47,33.56,33.56,0,0,0,8.12,3.91,90.13,90.13,0,0,0,9.31,2.55c3.2.71,6.33,1.38,9.39,2a44.44,44.44,0,0,1,8.11,2.48,16.59,16.59,0,0,1,5.71,3.83,8.57,8.57,0,0,1,2.18,6.09,9.41,9.41,0,0,1-1.8,5.93,11.47,11.47,0,0,1-4.59,3.53,23.13,23.13,0,0,1-6.08,1.65,46.82,46.82,0,0,1-6.31.45,37.22,37.22,0,0,1-7.59-.75,21.16,21.16,0,0,1-6.61-2.48,13.82,13.82,0,0,1-4.73-4.58,14.21,14.21,0,0,1-1.95-7.21H224.69a28.09,28.09,0,0,0,3,12.24A22.66,22.66,0,0,0,234.9,141a31.47,31.47,0,0,0,10.3,4.5A51.1,51.1,0,0,0,257.59,147a60.08,60.08,0,0,0,11.79-1.19,33.31,33.31,0,0,0,10.67-4.05,22.7,22.7,0,0,0,7.66-7.56,21.66,21.66,0,0,0,2.93-11.61,18.27,18.27,0,0,0-2.18-9.29A19.5,19.5,0,0,0,282.75,107.06Z"/><path class="cls-1" d="M406.54,71a21.91,21.91,0,0,0-8.11-4,40.67,40.67,0,0,0-10.59-1.27,29.17,29.17,0,0,0-14,3.45,27,27,0,0,0-10.37,9.77q-2.4-7.22-8.26-10.22a28.26,28.26,0,0,0-13.07-3q-16.38,0-25.09,13.22h-.3V67.5h-12v77.67h12.77V96.79a18.57,18.57,0,0,1,1.13-5.63,21.86,21.86,0,0,1,10-11.94A19,19,0,0,1,338.26,77a17.27,17.27,0,0,1,7.06,1.28,10.68,10.68,0,0,1,4.51,3.61,14.6,14.6,0,0,1,2.33,5.48,33,33,0,0,1,.68,6.91v50.93h12.77V96.79q0-9,5.48-14.42T385.89,77a18.28,18.28,0,0,1,7.59,1.36A11.32,11.32,0,0,1,398.06,82a13.81,13.81,0,0,1,2.25,5.48,36.18,36.18,0,0,1,.6,6.76v50.93h12.77V88.23a25.56,25.56,0,0,0-1.88-10.29A18,18,0,0,0,406.54,71Z"/><path class="cls-1" d="M583.59,78.77V67.5H568.12V44.21H555.35V67.5c-23.83,0-30.2,16.37-30.2,16.37V67.5h-12v77.67H525.9V110.62a53.35,53.35,0,0,1,1.5-13.22,25.47,25.47,0,0,1,4.81-9.92,20.51,20.51,0,0,1,8.72-6.16,43.68,43.68,0,0,1,14.42-2.55v49.42a29.61,29.61,0,0,0,1,8.72,10.58,10.58,0,0,0,3.23,5.1,12.34,12.34,0,0,0,5.71,2.48,45.84,45.84,0,0,0,8.49.68h9.76V133.9h-5.86a42.79,42.79,0,0,1-4.88-.22,6.32,6.32,0,0,1-2.93-1,3.71,3.71,0,0,1-1.43-2.1,14,14,0,0,1-.37-3.61V78.77Z"/><path class="cls-1" d="M484.44,69.53a27.05,27.05,0,0,0-9.39-3.08,72.8,72.8,0,0,0-10.44-.75,54.73,54.73,0,0,0-12.32,1.35,30.37,30.37,0,0,0-10.37,4.43,22.83,22.83,0,0,0-7.21,8,27.6,27.6,0,0,0-3,12.17h12.77q.45-8.56,5.86-11.65T463.86,77a40.64,40.64,0,0,1,6.08.46,16.52,16.52,0,0,1,5.56,1.8,10.83,10.83,0,0,1,4.06,3.9,12.79,12.79,0,0,1,1.58,6.76A7,7,0,0,1,479,95.37a13.85,13.85,0,0,1-5.71,2.85,55.65,55.65,0,0,1-8.33,1.5c-3.16.36-6.49.88-10,1.58a88.45,88.45,0,0,0-9.7,2.33,29.82,29.82,0,0,0-8.41,4,19,19,0,0,0-5.93,6.76,22.86,22.86,0,0,0-2.26,10.82,22.49,22.49,0,0,0,2,10,18.55,18.55,0,0,0,5.49,6.76,22.48,22.48,0,0,0,8.18,3.83,40.57,40.57,0,0,0,10,1.2,39.56,39.56,0,0,0,15.1-2.85A31.3,31.3,0,0,0,481.74,135v10.22h12V87q0-6.77-2.55-11A18,18,0,0,0,484.44,69.53ZM481,118.13a14.46,14.46,0,0,1-1.36,5.78,17.19,17.19,0,0,1-4.2,5.71,23,23,0,0,1-7.37,4.36,30.27,30.27,0,0,1-10.81,1.72,25.64,25.64,0,0,1-5.71-.6,13.87,13.87,0,0,1-4.73-1.95,10.57,10.57,0,0,1-3.31-3.53,10.39,10.39,0,0,1-1.28-5.33,12.7,12.7,0,0,1,1.28-6,12,12,0,0,1,3.38-4,16.46,16.46,0,0,1,5-2.47,52.78,52.78,0,0,1,6-1.5q3.15-.6,6.53-1c2.26-.25,4.38-.55,6.39-.9s3.91-.78,5.71-1.28a13.38,13.38,0,0,0,4.51-2.11Z"/><path class="cls-2" d="M517.15,53.35a26.68,26.68,0,1,1,26.67-26.68,26.66,26.66,0,0,1-26.67,26.68"/><path class="cls-3" d="M385.89,53.35a26.68,26.68,0,1,1,26.66-26.68,26.67,26.67,0,0,1-26.66,26.68"/><path class="cls-4" d="M453.25,53.35a26.68,26.68,0,1,1,26.66-26.68,26.67,26.67,0,0,1-26.66,26.68"/></svg>